# xmcd
#
# Track frame offsets:
#	150
#	28344
#	70697
#	104220
#	115720
#	142984
#	172787
#	209092
#	225950
#	278175
#
# Disc length: 3966 seconds
#
# Revision: 1
# Processed by: cddbd v1.5.2PL0 Copyright (c) Steve Scherf et al.
# Submitted via: audiograbber 1.83.01
#
DISCID=8c0f7c0a
DTITLE=Grateful Dead - 80-08-21 Uptown Theatre, Chicago IL
DYEAR=1900
DGENRE=
TTITLE0=Cold Rain and Snow
TTITLE1=New Minglewood Blues
TTITLE2=High Time
TTITLE3=Mama Tried
TTITLE4=Mexicali Blues
TTITLE5=Peggy-O
TTITLE6=It's All Over Now
TTITLE7=Easy To Love You
TTITLE8=Shakedown Street
TTITLE9=Promised Land
EXTD=
EXTT0=
EXTT1=
EXTT2=
EXTT3=
EXTT4=
EXTT5=
EXTT6=
EXTT7=
EXTT8=
EXTT9=
PLAYORDER=
